<svg width="24" height="24" viewBox="0 0 24 24" fill="none" xmlns="http://www.w3.org/2000/svg">
<rect width="24" height="24" transform="matrix(-1 0 0 1 24 0)" fill="white"/>
<path fill-rule="evenodd" clip-rule="evenodd" d="M18.3741 3.68208C16.7613 2.0693 14.5747 1.1621 12.2938 1.15952C10.013 1.1621 7.82637 2.0693 6.21358 3.68208C4.6008 5.29486 3.69361 7.48152 3.69102 9.76234C3.69102 17.1236 11.5118 22.6861 11.8441 22.9208C11.9774 23.0094 12.1338 23.0568 12.2938 23.0568C12.4539 23.0568 12.6103 23.0094 12.7435 22.9208C13.0759 22.6861 20.8967 17.1236 20.8967 9.76234C20.8941 7.48152 19.9869 5.29486 18.3741 3.68208ZM12.2938 14.5665C9.33203 14.5665 6.93103 12.1655 6.93103 9.2037C6.93103 6.2419 9.33203 3.8409 12.2938 3.8409C15.2556 3.8409 17.6566 6.2419 17.6566 9.2037C17.6566 12.1655 15.2556 14.5665 12.2938 14.5665Z" fill="black"/>
<path fill-rule="evenodd" clip-rule="evenodd" d="M11.4009 12.8325L8.41315 9.38914L11.4009 5.94577V8.08505H16.1745V10.6932H11.4009V12.8325Z" fill="#FF0000"/>
</svg>
