<svg width="24" height="24" viewBox="0 0 24 24" fill="none" xmlns="http://www.w3.org/2000/svg">
<rect width="24" height="24" fill="white"/>
<path fill-rule="evenodd" clip-rule="evenodd" d="M5.6259 3.68208C7.23868 2.0693 9.42534 1.1621 11.7062 1.15952C13.987 1.1621 16.1736 2.0693 17.7864 3.68208C19.3992 5.29486 20.3064 7.48152 20.309 9.76234C20.309 17.1236 12.4882 22.6861 12.1559 22.9208C12.0226 23.0094 11.8662 23.0568 11.7062 23.0568C11.5461 23.0568 11.3897 23.0094 11.2565 22.9208C10.9241 22.6861 3.10333 17.1236 3.10333 9.76234C3.10592 7.48152 4.01312 5.29486 5.6259 3.68208ZM11.7062 14.5665C14.668 14.5665 17.069 12.1655 17.069 9.2037C17.069 6.2419 14.668 3.8409 11.7062 3.8409C8.74438 3.8409 6.34338 6.2419 6.34338 9.2037C6.34338 12.1655 8.74438 14.5665 11.7062 14.5665Z" fill="black"/>
<path fill-rule="evenodd" clip-rule="evenodd" d="M12.5991 12.8325L15.5869 9.38914L12.5991 5.94577V8.08505H7.8255V10.6932H12.5991V12.8325Z" fill="#FF0000"/>
</svg>
